HIERARCHY
ROOT Hips
{
	OFFSET -3.958830 18.904000 13.208200
	CHANNELS 6 Xposition Yposition Zposition Zrotation Yrotation Xrotation 
	JOINT LHipJoint
	{
		OFFSET 0.000000 0.000000 0.000000
		CHANNELS 3 Zrotation Yrotation Xrotation
		JOINT LeftUpLeg
		{
			OFFSET 1.800000 -1.400000 0.085000
			CHANNELS 3 Zrotation Yrotation Xrotation
			JOINT LeftLeg
			{
				OFFSET 2.215000 -6.000000 0.000000
				CHANNELS 3 Zrotation Yrotation Xrotation
				JOINT LeftFoot
				{
					OFFSET 2.500000 -6.900000 0.000000
					CHANNELS 3 Zrotation Yrotation Xrotation
					JOINT LeftToeBase
					{
						OFFSET 0.200000 -0.500000 1.950000
						CHANNELS 3 Zrotation Yrotation Xrotation
						End Site
						{
							OFFSET 0.000000 0.000000 0.000000
						}
					}
				}
			}
		}
	}
	JOINT RHipJoint
	{
		OFFSET 0.000000 0.000000 0.000000
		CHANNELS 3 Zrotation Yrotation Xrotation
		JOINT RightUpLeg
		{
			OFFSET -1.800000 -1.400000 0.085000
			CHANNELS 3 Zrotation Yrotation Xrotation
			JOINT RightLeg
			{
				OFFSET -2.215000 -6.000000 0.000000
				CHANNELS 3 Zrotation Yrotation Xrotation
				JOINT RightFoot
				{
					OFFSET -2.500000 -6.900000 0.000000
					CHANNELS 3 Zrotation Yrotation Xrotation
					JOINT RightToeBase
					{
						OFFSET -0.200000 -0.500000 1.950000
						CHANNELS 3 Zrotation Yrotation Xrotation
						End Site
						{
							OFFSET 0.000000 0.000000 0.000000
						}
					}
				}
			}
		}
	}
	JOINT LowerBack
	{
		OFFSET 0.000000 0.000000 0.000000
		CHANNELS 3 Zrotation Yrotation Xrotation
		JOINT Spine
		{
			OFFSET -0.087000 1.940000 -0.288900
			CHANNELS 3 Zrotation Yrotation Xrotation
			JOINT Spine1
			{
				OFFSET 0.000000 1.950000 0.060000
				CHANNELS 3 Zrotation Yrotation Xrotation
				JOINT Neck
				{
					OFFSET 0.000000 0.000000 0.000000
					CHANNELS 3 Zrotation Yrotation Xrotation
					JOINT Neck1
					{
						OFFSET 0.000000 1.600000 0.340000
						CHANNELS 3 Zrotation Yrotation Xrotation
						JOINT Head
						{
							OFFSET 0.000000 1.667000 -0.240000
							CHANNELS 3 Zrotation Yrotation Xrotation
							End Site
							{
								OFFSET 0.000000 0.000000 0.000000
							}
						}
					}
				}
				JOINT LeftShoulder
				{
					OFFSET 0.000000 0.000000 0.000000
					CHANNELS 3 Zrotation Yrotation Xrotation
					JOINT LeftArm
					{
						OFFSET 2.700000 1.550000 -0.730000
						CHANNELS 3 Zrotation Yrotation Xrotation
						JOINT LeftForeArm
						{
							OFFSET 5.450000 0.000000 0.000000
							CHANNELS 3 Zrotation Yrotation Xrotation
							JOINT LeftHand
							{
								OFFSET 3.450000 0.000000 0.000000
								CHANNELS 3 Zrotation Yrotation Xrotation
								JOINT LeftHandIndex1
								{
									OFFSET 0.750000 0.000000 0.000000
									CHANNELS 3 Zrotation Yrotation Xrotation
									End Site
									{
										OFFSET 0.000000 0.000000 0.000000
									}
								}
							}
						}
					}
				}
				JOINT RightShoulder
				{
					OFFSET 0.000000 0.000000 0.000000
					CHANNELS 3 Zrotation Yrotation Xrotation
					JOINT RightArm
					{
						OFFSET -2.700000 1.550000 -0.730000
						CHANNELS 3 Zrotation Yrotation Xrotation
						JOINT RightForeArm
						{
							OFFSET -5.450000 0.000000 0.000000
							CHANNELS 3 Zrotation Yrotation Xrotation
							JOINT RightHand
							{
								OFFSET -3.450000 0.000000 0.000000
								CHANNELS 3 Zrotation Yrotation Xrotation
								JOINT RightHandIndex1
								{
									OFFSET -0.750000 0.000000 0.000000
									CHANNELS 3 Zrotation Yrotation Xrotation
									End Site
									{
										OFFSET 0.000000 0.000000 0.000000
									}
								}
							}
						}
					}
				}
			}
		}
	}
}
MOTION
Frames: 12
Frame Time: 0.016667
0.016840 17.575640 -2.233360 -0.627284 1.254693 0.462136 -15.258615 13.350152 2.741222 -1.132538 1.041039 0.281120 -2.415712 5.878153 15.278403 0.299400 4.411631 3.198785 -0.128640 -0.193730 -0.121470 18.270140 -11.241987 2.542713 -0.895953 -1.650364 -1.291493 0.240632 -4.802633 17.413679 -0.146546 -4.314579 2.991377 -0.068580 0.294370 0.051660 -3.478418 -1.562514 -6.927537 5.882910 -0.164008 0.256079 -3.795932 -0.050229 16.225349 2.142331 -1.763247 -16.327431 -4.534999 0.789209 30.617447 -1.363610 0.792710 6.749670 35.351511 -7.933622 3.176428 45.022785 1.963206 0.753444 18.664297 -4.285788 0.164430 -4.381266 3.358709 -0.156530 0.251010 -0.231760 0.054380 -38.791513 10.763108 4.144355 -42.044767 -9.139428 2.683946 -15.492954 8.643840 -0.101892 3.167433 -2.000891 -0.081160 0.005600 0.055980 0.037610 
0.025950 17.505640 -2.225810 -0.565303 2.595344 1.376195 -15.305104 13.203633 2.767308 -1.445269 1.099548 0.659190 -2.766512 5.781547 13.973141 0.295018 4.352499 3.230037 -0.140490 -0.208680 -0.132210 18.249258 -11.204273 2.596476 -0.484965 -1.717994 -0.914440 0.517080 -4.762032 16.205295 -0.144275 -4.299344 3.002706 -0.074740 0.304970 0.053700 -3.403538 -1.382402 -7.012253 5.150703 0.215008 -0.367238 -3.069210 0.125714 15.750018 2.160472 -1.412404 -16.843795 -3.485106 -0.005905 29.163529 -1.344450 0.138680 6.324430 37.260416 -7.207562 2.975683 46.240120 3.739929 1.231551 15.551162 -1.045338 0.072698 -4.301650 3.164648 -0.162540 0.256460 -0.241600 0.053560 -40.517785 9.869864 3.528175 -42.490724 -11.073582 3.295359 -11.837406 6.841841 -0.091993 2.958445 -1.917985 -0.084850 0.007550 0.062800 0.041340 
0.033860 17.428590 -2.224430 -0.359017 4.259035 2.211765 -15.333488 13.107664 2.779907 -1.710156 1.100261 0.711811 -2.679872 5.630490 13.306754 0.271155 4.296247 3.254619 -0.127410 -0.191600 -0.129960 18.234416 -11.184197 2.650248 -0.116966 -1.754941 -0.692544 0.672201 -4.699814 15.327214 -0.146282 -4.292860 3.004225 -0.055500 0.313940 0.061130 -3.367006 -1.248031 -7.098188 4.454923 0.345704 -0.683774 -2.794855 0.184909 15.252803 2.073047 -1.031001 -17.343517 -2.362096 -0.808858 27.279152 -1.296320 -0.574150 5.238550 39.168043 -5.991901 2.586453 47.022058 5.409042 1.790871 13.262487 0.671017 -0.104529 -4.244405 3.039878 -0.173330 0.264800 -0.248480 0.058060 -42.202468 8.618989 2.851854 -42.498904 -12.293626 3.623105 -8.801011 5.292634 -0.253930 2.693474 -1.857579 -0.084040 0.014410 0.061900 0.045400 
0.037260 17.343130 -2.220590 -0.225444 5.430095 2.936829 -15.332119 13.005301 2.771386 -1.723705 1.108515 0.819599 -2.516316 5.490443 12.790820 0.265509 4.241437 3.275569 -0.113330 -0.169320 -0.134370 18.244034 -11.212015 2.695012 0.093589 -1.770698 -0.584901 0.742265 -4.642783 14.685053 -0.155341 -4.294977 3.000975 -0.042590 0.320870 0.076110 -3.401046 -1.015266 -7.153499 4.066344 0.645024 -1.107411 -2.642305 0.379133 14.517541 1.974404 -0.767411 -17.618990 -1.514634 -1.321186 25.917493 -0.965050 -1.186150 4.362490 40.395856 -5.158883 2.277973 47.711672 7.019921 2.475882 11.205014 1.333344 -0.265432 -4.152309 2.998860 -0.186940 0.269200 -0.246660 0.067040 -43.233712 7.716790 2.297116 -43.065411 -13.218694 4.054154 -6.560096 4.617289 -0.403822 2.450290 -1.870864 -0.069720 0.013370 0.059100 0.058090 
0.039820 17.250450 -2.210340 -0.216908 6.454809 3.442997 -15.324914 12.960332 2.755619 -1.460657 1.098964 0.938663 -2.266011 5.416235 12.740319 0.262087 4.225339 3.282493 -0.111780 -0.172760 -0.135680 18.246926 -11.251927 2.740248 0.313844 -1.790422 -0.456574 0.781369 -4.636385 14.507090 -0.163115 -4.305238 2.997408 -0.046630 0.318620 0.078910 -3.433208 -0.829131 -7.208158 3.874297 0.964023 -1.501388 -2.384410 0.581340 13.619470 1.856661 -0.750207 -17.849040 -1.290476 -1.783593 25.353353 -0.761420 -1.804220 3.872570 41.097540 -4.602842 2.070375 48.132559 8.480510 3.206849 9.678880 1.081655 -0.342476 -4.050295 3.011425 -0.181340 0.261420 -0.245000 0.067060 -43.694156 7.255831 2.149090 -43.726750 -14.003720 4.355575 -5.367450 4.188989 -0.493054 2.303950 -1.871071 -0.066750 0.013140 0.061140 0.060040 
0.039390 17.153900 -2.204070 -0.212072 6.638261 3.897344 -15.325844 12.986253 2.761213 -1.346801 1.064684 0.732496 -2.186229 5.447889 13.242441 0.272069 4.231226 3.279874 -0.102650 -0.159890 -0.135110 18.228474 -11.283948 2.771818 0.497508 -1.767424 -0.492896 0.529589 -4.564288 14.708480 -0.164067 -4.301100 2.999981 -0.042540 0.312690 0.082310 -3.410392 -0.777351 -7.258076 3.672796 1.217538 -1.683138 -2.149391 0.724587 12.410846 1.854305 -1.031321 -17.905587 -1.584641 -2.152084 24.628523 -0.961190 -2.134170 3.464530 41.062252 -4.193781 1.984106 48.494267 9.542123 3.762811 9.144318 0.573246 -0.333909 -3.999951 3.071168 -0.187230 0.257660 -0.241460 0.073200 -43.585908 7.169579 2.297277 -44.576937 -14.778232 4.550624 -5.391509 3.797931 -0.567587 2.289330 -1.855206 -0.057150 0.007870 0.052690 0.066190 
0.038260 17.057850 -2.204640 -0.428416 5.967540 3.969608 -15.308442 13.042353 2.768304 -1.323586 1.021327 0.447519 -2.172401 5.562314 14.201340 0.290280 4.266862 3.262533 -0.090240 -0.137090 -0.135930 18.226176 -11.308785 2.798149 0.821444 -1.758528 -0.418144 0.003562 -4.458828 15.243598 -0.173530 -4.305662 3.000101 -0.034880 0.306250 0.084170 -3.422404 -0.800777 -7.294367 3.926547 1.270727 -1.680305 -2.061729 0.749334 11.470351 1.837271 -1.275090 -17.889063 -1.967138 -2.007745 24.198535 -0.865320 -2.065650 3.033200 40.681654 -3.999143 2.028873 48.582170 10.167874 4.029852 9.351757 0.159363 -0.286247 -3.998410 3.127268 -0.191320 0.252310 -0.232420 0.082170 -43.180216 7.240950 2.595766 -45.131482 -15.002228 4.505642 -6.200036 3.017808 -0.627563 2.353427 -1.766544 -0.045900 0.004920 0.041680 0.074070 
0.034930 16.970300 -2.213200 -0.764427 4.583067 3.718818 -15.295100 13.152673 2.784706 -1.390619 0.975571 0.124394 -2.141677 5.752106 15.590929 0.307586 4.357848 3.225822 -0.085700 -0.129970 -0.135070 18.216662 -11.309017 2.807446 1.200315 -1.725918 -0.353056 -0.683102 -4.347474 16.251065 -0.180660 -4.317863 2.997910 -0.032690 0.301950 0.079820 -3.404164 -0.932680 -7.305241 4.363749 1.192909 -1.486173 -1.762443 0.673378 10.645282 1.840216 -1.716778 -17.648784 -2.878228 -1.525139 24.186804 -0.905200 -1.707190 2.815220 39.689567 -4.133351 2.258373 48.452442 10.544098 4.101730 10.437697 -0.166675 -0.201865 -4.065210 3.156472 -0.184630 0.246300 -0.227580 0.085270 -42.171606 7.711537 3.108900 -45.855206 -14.815083 4.387070 -7.883454 2.016477 -0.617357 2.488263 -1.638736 -0.046660 0.008190 0.038130 0.073230 
0.034530 16.891490 -2.231680 -1.170062 2.589616 3.268806 -15.276459 13.321818 2.813144 -1.703193 0.893800 -0.416802 -1.856034 5.979330 17.770756 0.311391 4.517248 3.162874 -0.077080 -0.118060 -0.124540 18.205033 -11.303652 2.790988 1.536209 -1.608818 -0.569601 -1.729282 -4.152156 17.903893 -0.176987 -4.343542 2.987021 -0.014190 0.302170 0.070600 -3.376245 -1.192502 -7.288096 5.091968 0.873977 -0.836894 -1.599171 0.433349 9.711110 1.950776 -2.302051 -17.069181 -4.004305 -0.645537 23.819676 -1.415610 -0.687460 2.660480 37.874969 -4.390130 2.615182 48.733059 10.859012 4.161054 12.217737 -0.056790 -0.125011 -4.182989 3.149144 -0.183020 0.253820 -0.235290 0.082660 -40.590421 8.465939 3.720649 -46.793052 -14.418850 4.317852 -10.261585 0.691618 -0.574938 2.647322 -1.521952 -0.060820 0.015400 0.036490 0.060860 
0.032590 16.820590 -2.257860 -1.539479 1.803548 2.520974 -15.263930 13.497740 2.826668 -1.892397 0.732235 -1.116984 -1.083878 6.112907 20.460140 0.336496 4.702309 3.091036 -0.086980 -0.122990 -0.135140 18.182328 -11.306153 2.810158 2.343717 -1.510602 -0.732629 -2.920458 -3.945858 20.113551 -0.188282 -4.420846 2.957385 -0.014690 0.309670 0.065650 -3.342788 -1.419306 -7.308999 5.610297 0.702973 0.142411 -1.371496 0.392256 9.086737 1.981098 -2.737483 -16.892890 -4.917575 -0.089774 23.728501 -1.642990 -0.186960 2.765620 36.475254 -4.785325 3.063846 48.339488 10.857882 3.973678 14.567843 0.088539 0.012916 -4.351653 3.120759 -0.184390 0.258540 -0.240430 0.080900 -39.238467 9.261440 4.522076 -47.151035 -14.087273 4.041446 -12.919278 -0.891492 -0.444395 2.845185 -1.398847 -0.067670 0.021340 0.044140 0.061070 
0.036890 16.753370 -2.306100 -1.525511 2.197535 1.572870 -15.259454 13.632725 2.835280 -2.190239 0.441819 -2.061431 -0.148308 6.235339 23.922407 0.364006 4.973324 2.978469 -0.054830 -0.090550 -0.118910 18.152039 -11.352472 2.808898 2.859193 -1.372844 -1.108716 -3.762538 -3.853593 22.670840 -0.223857 -4.547859 2.901721 0.009180 0.298100 0.066390 -3.306087 -1.492569 -7.290659 5.482147 0.768863 1.591271 -1.046217 0.665357 8.151931 1.881950 -2.840916 -16.118273 -5.128376 -0.058046 23.669845 -1.175700 -0.536090 1.915040 34.081251 -5.763051 3.475566 48.891750 10.236752 3.730936 17.640208 0.932698 0.154088 -4.470442 3.081956 -0.171390 0.244920 -0.231480 0.085820 -36.680517 10.298410 5.194273 -48.471380 -13.501367 3.993173 -15.922690 -2.173141 -0.231229 2.956408 -1.370098 -0.064150 0.027990 0.036800 0.057480 
0.031130 16.684730 -2.370500 -1.525185 2.668306 0.136119 -15.269892 13.749518 2.835963 -2.293423 0.078865 -2.960797 0.751650 6.460479 28.002753 0.435637 5.400455 2.816994 -0.034100 -0.070830 -0.108140 18.121103 -11.361562 2.798675 3.558205 -1.211287 -1.438043 -4.746272 -3.780635 26.103778 -0.282388 -4.791262 2.806630 0.021410 0.288960 0.066310 -3.251295 -1.617494 -7.263187 5.161292 0.785292 3.429325 -0.672397 0.906563 7.918876 1.757999 -2.879754 -15.442396 -5.251488 -0.257582 23.715749 -0.826200 -1.025920 1.418330 31.624107 -7.110009 4.092752 49.296721 9.464022 3.047934 21.273069 3.009058 0.353288 -4.587673 2.996202 -0.162820 0.232240 -0.223930 0.089900 -34.022866 11.707114 6.175825 -49.228718 -13.139505 3.552639 -19.982034 -4.451888 0.165658 3.117866 -1.322463 -0.059320 0.032070 0.030450 0.057600 
